{
  "accessors": [
    {
      "bufferView": 0,
      "componentType": 5125,
      "count": 4416,
      "type": "SCALAR"
    },
    {
      "bufferView": 1,
      "componentType": 5126,
      "count": 1000,
      "max": [
        0.40094265835214493,
        0.1362838502581576,
        0.02021340004885167
      ],
      "min": [
        -0.40094265835214493,
        -0.1362838502581576,
        -0.02021340004885167
      ],
      "type": "VEC3"
    },
    {
      "bufferView": 2,
      "componentType": 5126,
      "count": 1000,
      "max": [
        0.9999999999999997,
        0.999999999999919,
        1.0
      ],
      "min": [
        -0.9999999999999997,
        -0.9999999999999993,
        -1.0
      ],
      "type": "VEC3"
    },
    {
      "bufferView": 3,
      "componentType": 5126,
      "count": 1000,
      "max": [
        1.0,
        0.7683579525216665
      ],
      "min": [
        0.0,
        0.0
      ],
      "type": "VEC2"
    }
  ],
  "asset": {
    "generator": "Adobe Illustrator",
    "version": "2.0"
  },
  "bufferViews": [
    {
      "buffer": 0,
      "byteLength": 17664,
      "target": 34963
    },
    {
      "buffer": 0,
      "byteLength": 12000,
      "byteOffset": 17664,
      "target": 34962
    },
    {
      "buffer": 0,
      "byteLength": 12000,
      "byteOffset": 29664,
      "target": 34962
    },
    {
      "buffer": 0,
      "byteLength": 8000,
      "byteOffset": 41664,
      "target": 34962
    }
  ],
  "buffers": [
    {
      "byteLength": 49664,
      "uri": "data:application/octet-stream;base64,"
    }
  ],
  "images": [
    {
      "name": "BaseColor",
      "uri": "data:image/png;base64,"
    },
    {
      "name": "Normal",
      "uri": "data:image/png;base64,"
    },
    {
      "name": "MetallicRoughness",
      "uri": "data:image/png;base64,"
    }
  ],
  "materials": [
    {
      "doubleSided": true,
      "normalTexture": {
        "index": 1
      },
      "pbrMetallicRoughness": {
        "baseColorTexture": {
          "index": 0
        },
        "metallicRoughnessTexture": {
          "index": 2
        }
      }
    }
  ],
  "meshes": [
    {
      "primitives": [
        {
          "attributes": {
            "NORMAL": 2,
            "POSITION": 1,
            "TEXCOORD_0": 3
          },
          "indices": 0,
          "material": 0,
          "mode": 4
        }
      ]
    }
  ],
  "nodes": [
    {
      "mesh": 0
    }
  ],
  "samplers": [
    {
      "magFilter": 9729,
      "minFilter": 9729,
      "wrapS": 10497,
      "wrapT": 10497
    }
  ],
  "scenes": [
    {
      "nodes": [
        0
      ]
    }
  ],
  "textures": [
    {
      "sampler": 0,
      "source": 0
    },
    {
      "sampler": 0,
      "source": 1
    },
    {
      "sampler": 0,
      "source": 2
    }
  ]
}
